<svg id="组_5566" data-name="组 5566" xmlns="http://www.w3.org/2000/svg" width="16.544" height="16.545" viewBox="0 0 16.544 16.545">
  <g id="组_5560" data-name="组 5560" transform="translate(0 0)">
    <path id="路径_22552" data-name="路径 22552" d="M1920.55,494.8a8.273,8.273,0,1,1,8.272-8.273A8.282,8.282,0,0,1,1920.55,494.8Zm0-15.881a7.608,7.608,0,1,0,7.607,7.608A7.616,7.616,0,0,0,1920.55,478.915Z" transform="translate(-1912.278 -478.25)" fill="#8b8b8b"/>
  </g>
  <g id="组_5561" data-name="组 5561" transform="translate(2.686 2.686)">
    <path id="路径_22553" data-name="路径 22553" d="M2059.5,595.145l.33-.013a2.807,2.807,0,0,0,.362-.036q.145-.026.34-.072a1.114,1.114,0,0,0,.32-.122,1.845,1.845,0,0,0,.244-.178.629.629,0,0,0,.178-.254.932.932,0,0,0,.059-.336h0a.87.87,0,0,0-.082-.386.916.916,0,0,0-.2-.277,1,1,0,0,0-.316-.185,2.222,2.222,0,0,0-.363-.109,3.679,3.679,0,0,0-.405-.053,3.805,3.805,0,0,0-.382-.017l-.356.007-.26,0v2.024l.227,0Q2059.386,595.148,2059.5,595.145Z" transform="translate(-2054.279 -589.911)" fill="#8b8b8b"/>
    <path id="路径_22554" data-name="路径 22554" d="M2061.45,647.484a1.259,1.259,0,0,0-.379-.2,3.143,3.143,0,0,0-.432-.122,4.029,4.029,0,0,0-.488-.059q-.29-.02-.455-.02t-.425.007l-.313.007v2.228l.244,0,.316,0q.125,0,.349-.01t.386-.026c.108-.011.233-.03.376-.056a2.556,2.556,0,0,0,.365-.092,2.175,2.175,0,0,0,.313-.138.863.863,0,0,0,.422-.461.942.942,0,0,0-.036-.758A.98.98,0,0,0,2061.45,647.484Z" transform="translate(-2054.314 -641.335)" fill="#8b8b8b"/>
    <path id="路径_22555" data-name="路径 22555" d="M1965.614,526a5.586,5.586,0,1,0,5.586,5.586A5.586,5.586,0,0,0,1965.614,526Zm3.476,7.088a2.167,2.167,0,0,1-.186.718,1.581,1.581,0,0,1-.37.511,1.885,1.885,0,0,1-.557.336,3.375,3.375,0,0,1-.7.2,6.992,6.992,0,0,1-.835.086V536.4h-.884V534.96q-.459,0-.7-.006V536.4h-.884v-1.464l-.31,0-.316,0H1962.2l.178-1.051h.637a.307.307,0,0,0,.333-.293v-2.309h.092a.582.582,0,0,0-.092-.006v-1.648a.456.456,0,0,0-.511-.39h-.637v-.942l1.217.006q.367,0,.557-.006v-1.447h.884v1.418q.471-.012.7-.012v-1.407h.884v1.447a5.134,5.134,0,0,1,.8.129,2.615,2.615,0,0,1,.649.259,1.312,1.312,0,0,1,.473.448,1.471,1.471,0,0,1,.21.658h0a1.361,1.361,0,0,1-.752,1.482,1.726,1.726,0,0,1,1.005.591A1.7,1.7,0,0,1,1969.09,533.088Z" transform="translate(-1960.028 -526)" fill="#8b8b8b"/>
  </g>
</svg>
