<svg xmlns="http://www.w3.org/2000/svg" width="14.343" height="15.939" viewBox="0 0 14.343 15.939">
  <path id="discord" d="M62.537,0a1.744,1.744,0,0,1,1.726,1.644v14.3l-1.773-1.51-.973-.889-1.062-.928.444,1.464H51.6a1.646,1.646,0,0,1-1.682-1.644V1.647A1.679,1.679,0,0,1,51.605,0H62.532ZM58.485,3.774h-.02l-.134.133a5.33,5.33,0,0,1,2.037,1.021,7.189,7.189,0,0,0-2.479-.755,6.789,6.789,0,0,0-1.639,0h-.132a5.891,5.891,0,0,0-1.861.488c-.309.135-.487.223-.487.223A4.721,4.721,0,0,1,55.9,3.863l-.089-.09a3.972,3.972,0,0,0-2.3.843,10.416,10.416,0,0,0-1.2,4.662,2.888,2.888,0,0,0,2.479,1.2s.265-.354.533-.665A2.621,2.621,0,0,1,53.9,8.881a2.195,2.195,0,0,1,.222.133h.04a.053.053,0,0,1,.04.02v0a.051.051,0,0,0,.04.02c.219.09.437.179.616.266a5.406,5.406,0,0,0,1.192.356,6.783,6.783,0,0,0,2.126,0,6.107,6.107,0,0,0,1.192-.355,9.543,9.543,0,0,0,.925-.489,2.632,2.632,0,0,1-1.46.932c.219.309.526.664.526.664a3.454,3.454,0,0,0,2.563-1.146,10.394,10.394,0,0,0-1.2-4.662,3.975,3.975,0,0,0-2.275-.837l.037-.013ZM58.6,6.7a.89.89,0,1,1-.841.891A.865.865,0,0,1,58.6,6.7Zm-3.009,0a.89.89,0,1,1-.844.891.864.864,0,0,1,.844-.891Z" transform="translate(-49.92)" fill="#8b8b8b"/>
</svg>
