<svg xmlns="http://www.w3.org/2000/svg" width="15.006" height="11.915" viewBox="0 0 15.006 11.915">
  <path id="bxl-medium" d="M88.649,181.5a.58.58,0,0,0-.19-.49l-1.4-1.688v-.253h4.35l3.363,7.375,2.956-7.375h4.147v.252l-1.2,1.148a.356.356,0,0,0-.133.336v8.441a.355.355,0,0,0,.133.336l1.17,1.148v.252H95.963v-.252l1.21-1.177c.12-.119.12-.154.12-.336V182.4l-3.37,8.56h-.455l-3.923-8.56v5.737a.794.794,0,0,0,.218.659l1.576,1.913v.252H86.869v-.252l1.576-1.913a.768.768,0,0,0,.2-.659Z" transform="translate(-86.869 -179.072)" fill="#8b8b8b"/>
</svg>
