<svg xmlns="http://www.w3.org/2000/svg" width="17.285" height="14.521" viewBox="0 0 17.285 14.521">
  <path id="reddit_2_" data-name="reddit (2)" d="M78.6,142.952a1,1,0,0,0,.992-1,.984.984,0,0,0-.992-1,1,1,0,0,0,0,2Zm-5.64,8.419a5,5,0,0,1-2.789-.751.133.133,0,0,0-.217.063l-.186.344a.241.241,0,0,0,.062.282,4.408,4.408,0,0,0,3.13.908c2.262,0,3.068-.97,3.068-.97a.247.247,0,0,0,.031-.25l-.217-.313a.186.186,0,0,0-.248-.031,4.573,4.573,0,0,1-2.634.72Zm-3.192-2.41a1,1,0,0,0,.992-1,.984.984,0,0,0-.992-1,1,1,0,0,0-.992,1A1.024,1.024,0,0,0,69.767,148.961Zm5.888,0a1,1,0,0,0,.992-1,.992.992,0,1,0-.992,1Zm.992-7.167c-.155-.063-1.828-.626-2.541-.125-.744.532-.713,2.285-.651,2.285a8.92,8.92,0,0,1,4.308,1.408c.093.063,1.085-.814,2.169-.626a1.845,1.845,0,0,1,1.488,2.378c-.341,1.127-1.395,1.471-1.364,1.815v.282c0,2.911-3.285,5.258-7.345,5.258s-7.345-2.347-7.345-5.258a2.086,2.086,0,0,1,.031-.438,2.974,2.974,0,0,1-1.023-1.127,2.245,2.245,0,0,1,.124-1.909,1.955,1.955,0,0,1,1.8-1,4.336,4.336,0,0,1,1.642.469,9.27,9.27,0,0,1,4.587-1.252c.062,0-.124-2.128,1.054-2.911,1.209-.782,3.192,0,3.223,0v.063a1.946,1.946,0,0,1,1.766-1.158,2,2,0,1,1-1.952,2,.236.236,0,0,1,.031-.156Z" transform="translate(-64.217 -139.948)" fill="#8b8b8b"/>
</svg>
