<svg xmlns="http://www.w3.org/2000/svg" width="15.013" height="15.321" viewBox="0 0 15.013 15.321">
  <path id="路径_22565" data-name="路径 22565" d="M605.435,169.134a5.964,5.964,0,0,0-2.516-4.333,5.562,5.562,0,0,0-1.276-.7c-.092-.036-.109-.082-.069-.167a2.8,2.8,0,0,1,.213-.4,3.429,3.429,0,0,1,1.482-1.187c.085-.039.174-.072.261-.107.049-.02.06-.043.007-.072-.03-.016-.06-.03-.09-.045a12.914,12.914,0,0,0-1.462-.571,14.113,14.113,0,0,0-4.151-.72,10.942,10.942,0,0,0-1.687.1,6.466,6.466,0,0,0-1.6.383,6.672,6.672,0,0,0-3.124,2.571,5.634,5.634,0,0,0-.724,4.776,5.742,5.742,0,0,0,2.925,3.6c.165.089.171.1.089.271a2.724,2.724,0,0,1-.98,1.085,4.259,4.259,0,0,1-1.185.545c-.025.007-.063.007-.068.035s.034.045.058.059c.129.073.256.148.388.215a14.027,14.027,0,0,0,7.3,1.653,6.375,6.375,0,0,0,1.283-.187,6.9,6.9,0,0,0,3.406-2.12A5.88,5.88,0,0,0,605.435,169.134Zm-2.562,3.729a5.181,5.181,0,0,1-1.912,1.378,5.35,5.35,0,0,1-1.918.457c-.281.014-.562.034-.844.035a9.283,9.283,0,0,1-3.364-.637c-.113-.043-.226-.087-.34-.127-.084-.029-.086-.064-.026-.127a4.479,4.479,0,0,0,.693-.911,1.565,1.565,0,0,0,.243-.738,1.142,1.142,0,0,0-.116-.506,4.513,4.513,0,0,1,3.581-6.387,4.476,4.476,0,0,1,3.742,1.242,4.329,4.329,0,0,1,1.346,2.85A4.58,4.58,0,0,1,602.874,172.863Z" transform="translate(-590.459 -160.829)" fill="#8b8b8b"/>
</svg>
