<svg id="组_5567" data-name="组 5567" xmlns="http://www.w3.org/2000/svg" width="15.125" height="13.154" viewBox="0 0 15.125 13.154">
  <path id="路径_22565" data-name="路径 22565" d="M1333.294,642.7a1.612,1.612,0,0,0-1.192-.452h-5.918a1.553,1.553,0,0,0-1.644,1.644v9.865a1.645,1.645,0,1,0,3.288,0v-7.4a.727.727,0,0,1,.822-.822h3.452a1.687,1.687,0,0,0,1.192-2.836Zm-10.851,0a1.611,1.611,0,0,0-1.192-.452h-.986a1.645,1.645,0,1,0,0,3.288h.986a1.687,1.687,0,0,0,1.192-2.836Z" transform="translate(-1318.621 -642.25)" fill="#8b8b8b"/>
</svg>
