<svg xmlns="http://www.w3.org/2000/svg" xmlns:xlink="http://www.w3.org/1999/xlink" width="15.135" height="12.525" viewBox="0 0 15.135 12.525">
  <defs>
    <clipPath id="clip-path">
      <path id="路径_25090" data-name="路径 25090" d="M875.481-126.852a3.166,3.166,0,0,0-2.133,3.184l.033.542-.547-.066a8.887,8.887,0,0,1-5.205-2.565l-.722-.719-.186.531a3.2,3.2,0,0,0,.678,3.273c.437.464.339.531-.415.254a1.3,1.3,0,0,0-.514-.122,3.974,3.974,0,0,0,.393,1.482,3.533,3.533,0,0,0,1.5,1.415l.536.254-.634.011c-.612,0-.634.011-.568.244a3.308,3.308,0,0,0,2.045,1.814l.678.232-.59.354a6.134,6.134,0,0,1-2.931.818,3.214,3.214,0,0,0-.9.089,8.355,8.355,0,0,0,2.111.973,9.227,9.227,0,0,0,7.174-.818,9.614,9.614,0,0,0,3.642-4.291,11.4,11.4,0,0,0,.744-3.316c0-.509.033-.575.645-1.183a7.206,7.206,0,0,0,.766-.851c.11-.21.1-.21-.459-.022-.929.332-1.061.288-.6-.21a3.224,3.224,0,0,0,.744-1.183c0-.033-.164.022-.35.122a6.045,6.045,0,0,1-.962.376l-.59.188-.536-.365a4.442,4.442,0,0,0-.929-.486A3.736,3.736,0,0,0,875.481-126.852Z" fill="#8b8b8b" clip-rule="evenodd"/>
    </clipPath>
    <clipPath id="clip-path-2">
      <path id="路径_25089" data-name="路径 25089" d="M857-107.729h30.271V-138H857Z" transform="translate(-857 138)" fill="#8b8b8b"/>
    </clipPath>
  </defs>
  <g id="组_7290" data-name="组 7290" transform="translate(-866 127)" clip-path="url(#clip-path)">
    <g id="组_7289" data-name="组 7289" transform="translate(858.432 -136.249)" clip-path="url(#clip-path-2)">
      <path id="路径_25088" data-name="路径 25088" d="M861-132h23.544v20.934H861Z" transform="translate(-857.637 137.045)" fill="#8b8b8b"/>
    </g>
  </g>
</svg>
