<svg xmlns="http://www.w3.org/2000/svg" width="16.634" height="13.641" viewBox="0 0 16.634 13.641">
  <path id="wechat" d="M4.712,38.593a.735.735,0,0,0-.2-.54.717.717,0,0,0-.536-.2.979.979,0,0,0-.617.208.649.649,0,0,0-.268.536.641.641,0,0,0,.268.528.979.979,0,0,0,.617.208.733.733,0,0,0,.536-.2.713.713,0,0,0,.2-.536Zm6.034,4.146a.533.533,0,0,0-.207-.409.781.781,0,0,0-.532-.18.558.558,0,0,0-.4.184.565.565,0,0,0-.183.405.573.573,0,0,0,.183.413.558.558,0,0,0,.4.184.784.784,0,0,0,.532-.18.535.535,0,0,0,.207-.417ZM8.829,38.593a.744.744,0,0,0-.2-.54.7.7,0,0,0-.532-.2.979.979,0,0,0-.617.208.649.649,0,0,0-.268.536.641.641,0,0,0,.268.528.979.979,0,0,0,.617.208.686.686,0,0,0,.731-.736Zm5.157,4.146a.529.529,0,0,0-.211-.409.785.785,0,0,0-.528-.18.558.558,0,0,0-.4.184.565.565,0,0,0-.183.405.573.573,0,0,0,.183.413.558.558,0,0,0,.4.184.785.785,0,0,0,.528-.18.536.536,0,0,0,.211-.417Zm-2.16-3.247a4.48,4.48,0,0,0-.569-.032,5.184,5.184,0,0,0-2.526.63,4.769,4.769,0,0,0-1.815,1.7,4.409,4.409,0,0,0-.662,2.351,4.181,4.181,0,0,0,.187,1.242q-.284.024-.552.024-.211,0-.406-.013t-.447-.053l-.362-.058q-.11-.017-.443-.086l-.406-.086L1.77,46.155l.585-1.782A4.821,4.821,0,0,1,0,40.366a4.421,4.421,0,0,1,.792-2.543,5.449,5.449,0,0,1,2.143-1.827,6.6,6.6,0,0,1,2.952-.667,6.835,6.835,0,0,1,2.7.54,5.936,5.936,0,0,1,2.128,1.493,4.579,4.579,0,0,1,1.108,2.13Zm4.808,4.587a3.344,3.344,0,0,1-.556,1.827,6.083,6.083,0,0,1-1.506,1.583l.447,1.48L13.4,48.077a8.362,8.362,0,0,1-1.77.3A5.57,5.57,0,0,1,9.106,47.8a4.608,4.608,0,0,1-1.815-1.566,3.848,3.848,0,0,1,0-4.316,4.627,4.627,0,0,1,1.815-1.566,5.561,5.561,0,0,1,2.526-.577,5.425,5.425,0,0,1,2.46.577,4.859,4.859,0,0,1,1.847,1.57,3.686,3.686,0,0,1,.694,2.155Z" transform="translate(0 -35.328)" fill="#8b8b8b"/>
</svg>
