<svg xmlns="http://www.w3.org/2000/svg" width="16.96" height="13.569" viewBox="0 0 16.96 13.569">
  <path id="联合_2" data-name="联合 2" d="M0,9.109C0,7.652.924,6.015,2.5,4.422,4.622,2.327,7.118,1.371,8.043,2.283a1.861,1.861,0,0,1,.183,1.956c-.137.41.417.183.417.183,1.709-.729,3.235-.775,3.79,0a1.787,1.787,0,0,1,0,1.683c-.14.272.046.319.277.41a2.634,2.634,0,0,1,2.078,2.322c0,2.093-3.049,4.732-7.669,4.732C3.605,13.569,0,11.886,0,9.109ZM6.471,6.015c-2.819.273-4.945,1.956-4.759,3.776.183,1.776,2.586,3.05,5.407,2.778s4.944-1.957,4.76-3.778c-.17-1.614-2.167-2.813-4.646-2.813C6.984,5.978,6.729,5.99,6.471,6.015ZM5.317,11.748A2.032,2.032,0,0,1,3.975,8.837,3.04,3.04,0,0,1,7.4,7.379,2.055,2.055,0,0,1,8.92,10.247a2.955,2.955,0,0,1-2.7,1.643A2.879,2.879,0,0,1,5.317,11.748Zm-.51-2a.717.717,0,0,0,.277,1.091,1.051,1.051,0,0,0,1.294-.41.689.689,0,0,0-.324-1.091.858.858,0,0,0-.349-.071A1.11,1.11,0,0,0,4.807,9.747ZM15.945,6.242a.822.822,0,0,1-.37-.318.639.639,0,0,1-.046-.5,3.071,3.071,0,0,0-.648-3.095,3.237,3.237,0,0,0-3.05-.956.677.677,0,0,1-.786-.5A.667.667,0,0,1,11.555.1a4.483,4.483,0,0,1,4.25,1.364,4.6,4.6,0,0,1,.971,4.369.732.732,0,0,1-.661.433A.623.623,0,0,1,15.945,6.242Zm-2.128-.774a.592.592,0,0,1-.368-.727A1.068,1.068,0,0,0,12.2,3.374a.5.5,0,0,1-.645-.41.494.494,0,0,1,.414-.637,2.273,2.273,0,0,1,2.08.683A2.075,2.075,0,0,1,14.512,5.1a.534.534,0,0,1-.519.392A.571.571,0,0,1,13.817,5.468Z" fill="#8b8b8b"/>
</svg>
